<svg style="position: absolute; width: 0; height: 0;" width="0" height="0" version="1.1" xmlns="http://www.w3.org/2000/svg" xmlns:xlink="http://www.w3.org/1999/xlink">
<defs>
<symbol id="icon-config" viewBox="0 0 27 32">
<title>config</title>
<path class="path1" d="M18.272 16q0-1.888-1.312-3.232t-3.232-1.344-3.232 1.344-1.344 3.232 1.344 3.232 3.232 1.344 3.232-1.344 1.312-3.232zM27.424 14.048v3.968q0 0.224-0.128 0.416t-0.352 0.224l-3.328 0.512q-0.32 0.96-0.672 1.632 0.608 0.864 1.888 2.464 0.192 0.192 0.192 0.416t-0.16 0.416q-0.48 0.672-1.76 1.952t-1.696 1.248q-0.224 0-0.448-0.16l-2.464-1.92q-0.8 0.416-1.632 0.672-0.288 2.432-0.512 3.328-0.128 0.512-0.64 0.512h-3.968q-0.256 0-0.448-0.16t-0.192-0.384l-0.512-3.296q-0.864-0.288-1.6-0.672l-2.528 1.92q-0.192 0.16-0.448 0.16t-0.448-0.192q-2.24-2.048-2.944-3.008-0.128-0.16-0.128-0.416 0-0.192 0.16-0.384 0.256-0.384 0.896-1.184t0.96-1.28q-0.48-0.896-0.736-1.76l-3.264-0.48q-0.224-0.032-0.352-0.224t-0.16-0.416v-3.968q0-0.224 0.16-0.416t0.32-0.224l3.328-0.512q0.256-0.8 0.704-1.632-0.736-1.024-1.92-2.464-0.192-0.224-0.192-0.448 0-0.16 0.16-0.384 0.48-0.64 1.76-1.92t1.696-1.28q0.224 0 0.48 0.16l2.464 1.92q0.768-0.416 1.6-0.672 0.288-2.432 0.544-3.328 0.096-0.512 0.64-0.512h3.968q0.224 0 0.416 0.16t0.224 0.384l0.48 3.296q0.896 0.288 1.6 0.64l2.56-1.888q0.16-0.16 0.416-0.16 0.224 0 0.448 0.16 2.304 2.144 2.944 3.040 0.128 0.16 0.128 0.384t-0.128 0.416q-0.288 0.384-0.928 1.184t-0.96 1.28q0.448 0.896 0.736 1.728l3.264 0.512q0.224 0.032 0.384 0.224t0.128 0.416z"></path>
</symbol>
<symbol id="icon-minimise" viewBox="0 0 30 32">
<title>minimise</title>
<path class="path1" d="M0.576 19.552v-7.136h28.576v7.136h-28.576z"></path>
</symbol>
<symbol id="icon-maximise" viewBox="0 0 26 32">
<title>maximise</title>
<path class="path1" d="M22.4 3.2q1.344 0 2.272 0.928t0.928 2.272v12.8q0 1.28-0.928 2.24t-2.272 0.96h-12.8q-1.28 0-2.24-0.96t-0.96-2.24v-12.864q0-1.28 0.928-2.208t2.272-0.928h12.8zM22.4 19.2v-12.8h-12.8v12.8h12.8zM3.2 16v9.6h9.6v3.2h-9.6q-1.28 0-2.24-0.96t-0.96-2.24v-9.6h3.2z"></path>
</symbol>
<symbol id="icon-close" viewBox="0 0 26 32">
<title>close</title>
<path class="path1" d="M25.568 23.488l-4.992 5.024-7.488-7.52-7.52 7.52-4.992-5.024 7.488-7.488-7.488-7.488 4.992-5.024 7.52 7.52 7.488-7.52 4.992 5.024-7.488 7.488z"></path>
</symbol>
<symbol id="icon-help" viewBox="0 0 19 32">
<title>help</title>
<path class="path1" d="M15.808 3.52q2.752 1.984 2.752 5.888 0 2.048-1.344 3.968-0.384 0.64-2.816 2.56l-1.472 0.96q-1.28 1.088-1.536 1.92-0.192 0.512-0.256 1.408 0 0.448-0.512 0.448h-4.096q-0.512 0-0.512-0.384 0.128-3.136 0.896-3.968 0.512-0.704 1.536-1.536t1.792-1.344l0.768-0.448q0.704-0.512 1.088-1.088 0.896-1.408 0.896-2.24 0-1.28-0.832-2.496-0.896-1.152-2.944-1.152-2.176 0-3.008 1.408-0.896 1.344-0.896 2.944h-5.312q0.192-5.184 3.648-7.424 2.24-1.344 5.312-1.344 4.16 0 6.848 1.92zM8.896 23.872q1.408 0 2.336 0.96t0.864 2.368q-0.064 1.472-1.024 2.336t-2.368 0.8q-1.408 0-2.336-0.928t-0.864-2.4 1.024-2.336 2.368-0.8z"></path>
</symbol>
</defs>
</svg>
